<?xml version="1.0" standalone="no"?>
<!DOCTYPE svg PUBLIC "-//W3C//DTD SVG 20010904//EN"
 "http://www.w3.org/TR/2001/REC-SVG-20010904/DTD/svg10.dtd">
<svg version="1.0" xmlns="http://www.w3.org/2000/svg"
 width="1280.000000pt" height="1279.000000pt" viewBox="0 0 1280.000000 1279.000000"
 preserveAspectRatio="xMidYMid meet">
<metadata>
Created by potrace 1.15, written by Peter Selinger 2001-2017
</metadata>
<g transform="translate(0.000000,1279.000000) scale(0.100000,-0.100000)"
fill="#000000" stroke="none">
<path d="M6397 12754 c-3 -5 -71 -236 -151 -514 -81 -278 -183 -632 -229 -787
-45 -156 -84 -283 -87 -283 -3 0 -176 331 -385 735 -327 631 -381 730 -387
707 -4 -15 -37 -380 -73 -812 -36 -432 -67 -794 -68 -804 -1 -13 -176 198
-524 633 -298 373 -523 645 -523 634 0 -10 40 -383 90 -828 49 -445 89 -809
87 -810 -1 -1 -287 238 -636 531 -349 294 -636 533 -638 531 -1 -2 110 -358
247 -792 138 -433 249 -789 248 -790 -2 -1 -329 177 -727 397 -398 219 -726
398 -728 398 -7 0 81 -161 455 -840 187 -338 339 -616 338 -617 -1 -1 -356
110 -790 248 -434 137 -790 248 -793 246 -2 -2 230 -281 514 -619 604 -717
547 -648 542 -652 -2 -2 -374 38 -826 88 -453 51 -823 91 -823 89 0 -2 291
-236 646 -520 571 -456 644 -518 623 -524 -13 -4 -385 -38 -826 -76 -441 -37
-799 -71 -795 -75 7 -7 148 -81 1039 -543 233 -121 419 -222 415 -226 -4 -4
-110 -36 -237 -73 -500 -142 -1339 -387 -1343 -391 -6 -5 44 -20 1013 -300
297 -86 548 -158 559 -161 10 -3 14 -10 10 -14 -5 -4 -263 -139 -574 -300
-855 -442 -895 -463 -885 -467 6 -1 352 -32 770 -68 897 -76 877 -74 869 -87
-3 -5 -294 -239 -645 -520 -352 -281 -638 -512 -637 -514 2 -1 366 38 808 87
443 49 813 88 824 87 14 -2 -113 -159 -513 -633 -291 -346 -527 -631 -522
-633 4 -1 194 56 422 128 1002 318 1141 361 1146 356 3 -2 -173 -328 -391
-722 -217 -395 -393 -720 -391 -722 2 -3 329 174 725 392 396 218 722 396 725
396 2 0 3 -6 0 -12 -2 -7 -56 -177 -119 -378 -63 -201 -174 -549 -245 -775
-72 -225 -128 -411 -126 -413 2 -2 288 235 636 527 347 293 633 530 635 529 1
-2 -37 -366 -87 -808 -49 -443 -88 -813 -87 -822 2 -11 202 232 518 627 283
355 518 645 523 645 4 0 7 -10 7 -22 0 -49 131 -1575 138 -1601 6 -25 53 60
381 692 205 396 378 727 385 736 9 12 60 -153 241 -780 127 -437 232 -795 235
-795 3 0 58 184 123 408 65 224 169 582 231 796 l113 388 19 -33 c11 -19 184
-350 384 -737 320 -615 366 -699 372 -675 4 15 37 384 74 818 37 435 69 793
73 797 3 4 238 -283 521 -637 314 -393 516 -637 518 -627 1 9 -38 379 -87 822
-50 442 -88 806 -87 808 2 1 288 -236 635 -529 348 -292 634 -529 636 -527 2
2 -32 116 -75 253 -44 138 -155 491 -249 785 -93 294 -168 536 -166 538 2 2
275 -146 607 -329 841 -463 838 -462 843 -457 2 2 -174 327 -391 722 -218 395
-393 720 -391 723 3 2 355 -106 783 -241 427 -136 781 -245 785 -244 4 2 -231
287 -523 633 -398 473 -525 631 -512 633 11 1 381 -38 824 -87 442 -49 806
-88 808 -87 2 2 -285 234 -637 515 -352 281 -642 515 -645 520 -8 12 -22 10
869 86 418 36 765 67 770 69 6 1 -15 15 -45 31 -30 15 -221 114 -425 220 -203
106 -507 263 -675 350 -168 87 -309 161 -314 165 -4 5 0 11 10 14 11 3 363
105 784 227 421 121 771 224 778 228 8 5 -18 17 -65 30 -43 13 -394 115 -781
227 -387 112 -710 207 -718 212 -10 6 202 120 700 378 393 203 724 376 736
384 18 14 -53 22 -782 83 -442 38 -814 72 -827 76 -21 6 52 68 623 524 355
284 646 518 646 520 0 2 -370 -38 -822 -89 -453 -50 -825 -89 -827 -88 -2 2
14 25 36 51 825 981 1023 1217 1020 1220 -2 2 -359 -109 -793 -246 -433 -138
-789 -249 -790 -248 -1 1 68 128 153 282 452 817 643 1168 640 1172 -3 2 -330
-176 -728 -395 -398 -219 -725 -398 -726 -397 -2 1 110 356 247 790 138 434
249 790 247 792 -2 1 -237 -193 -523 -434 -285 -240 -570 -479 -632 -531 -62
-52 -114 -93 -117 -91 -2 2 37 364 86 804 49 440 89 811 89 824 0 17 -149
-163 -522 -630 -349 -435 -524 -646 -525 -633 -1 10 -32 372 -68 804 -36 432
-69 797 -73 812 -6 23 -60 -76 -387 -707 -209 -404 -383 -735 -386 -735 -3 0
-24 66 -47 148 -179 628 -420 1443 -425 1436z"/>
</g>
</svg>
